<svg width="48" height="48" viewBox="0 0 48 48" fill="none" xmlns="http://www.w3.org/2000/svg">
<circle cx="24" cy="24" r="22.5" stroke="white" stroke-width="3"/>
<path d="M23.2069 18.8235L17.4798 20.3661C16.6067 20.6013 16 21.393 16 22.2973V33C16 34.1046 16.8954 35 18 35H20.5H22.5H26.4828M23.2069 18.8235L24.0952 18.6481C25.3315 18.4039 26.4828 19.35 26.4828 20.6101V35M23.2069 18.8235V16.5848C23.2069 15.6296 23.8823 14.8078 24.8193 14.6227L26.4828 14.2941L30.0795 13.5206C31.3249 13.2527 32.5 14.202 32.5 15.4759V33C32.5 34.1046 31.6046 35 30.5 35L26.4828 35M19 24H23.5M19 27.5H23.5" stroke="white" stroke-width="2" stroke-linecap="round"/>
</svg>
