<svg width="93" height="30" viewBox="0 0 93 30" fill="none" xmlns="http://www.w3.org/2000/svg">
<path d="M5.712 24.384C3.904 24.384 2.576 23.928 1.728 23.016C0.88 22.104 0.456 20.592 0.456 18.48C0.456 16.8 0.736 14.992 1.296 13.056C1.872 11.12 2.784 9.464 4.032 8.088C5.296 6.696 6.896 6 8.832 6C10.032 6 11 6.264 11.736 6.792C12.472 7.32 12.84 8.128 12.84 9.216C12.84 9.904 12.704 10.448 12.432 10.848C12.16 11.232 11.736 11.424 11.16 11.424C10.584 11.424 10.128 11.216 9.792 10.8C10.08 10.656 10.336 10.368 10.56 9.936C10.784 9.504 10.896 9.056 10.896 8.592C10.896 8.16 10.776 7.808 10.536 7.536C10.312 7.264 9.944 7.128 9.432 7.128C8.584 7.128 7.776 7.712 7.008 8.88C6.24 10.032 5.616 11.488 5.136 13.248C4.672 15.008 4.44 16.704 4.44 18.336C4.44 19.552 4.648 20.48 5.064 21.12C5.48 21.76 6.232 22.08 7.32 22.08C8.264 22.08 9.136 21.872 9.936 21.456C10.736 21.04 11.424 20.448 12 19.68L12.552 19.92C12.152 20.928 11.56 21.768 10.776 22.44C9.992 23.112 9.152 23.608 8.256 23.928C7.36 24.232 6.512 24.384 5.712 24.384ZM13.1057 24.144C12.3377 24.144 11.7137 23.904 11.2337 23.424C10.7697 22.944 10.5377 22.224 10.5377 21.264C10.5377 20.864 10.6017 20.344 10.7297 19.704L13.2977 7.68L16.8497 7.2L14.0897 20.16C14.0257 20.4 13.9937 20.656 13.9937 20.928C13.9937 21.248 14.0657 21.48 14.2097 21.624C14.3697 21.752 14.6257 21.816 14.9777 21.816C15.4417 21.816 15.8737 21.624 16.2737 21.24C16.6737 20.84 16.9617 20.328 17.1377 19.704H18.1457C17.5537 21.432 16.7937 22.608 15.8657 23.232C14.9377 23.84 14.0177 24.144 13.1057 24.144ZM19.9361 10.704C19.4081 10.704 18.9601 10.52 18.5921 10.152C18.2241 9.784 18.0401 9.336 18.0401 8.808C18.0401 8.28 18.2241 7.832 18.5921 7.464C18.9601 7.08 19.4081 6.888 19.9361 6.888C20.4641 6.888 20.9121 7.08 21.2801 7.464C21.6641 7.832 21.8561 8.28 21.8561 8.808C21.8561 9.336 21.6641 9.784 21.2801 10.152C20.9121 10.52 20.4641 10.704 19.9361 10.704ZM18.3041 24.144C17.5361 24.144 16.9121 23.904 16.4321 23.424C15.9681 22.944 15.7361 22.224 15.7361 21.264C15.7361 20.864 15.8001 20.344 15.9281 19.704L17.5601 12H21.0161L19.2881 20.16C19.2241 20.4 19.1921 20.656 19.1921 20.928C19.1921 21.248 19.2641 21.48 19.4081 21.624C19.5681 21.752 19.8241 21.816 20.1761 21.816C20.6401 21.816 21.0721 21.624 21.4721 21.24C21.8721 20.84 22.1601 20.328 22.3361 19.704H23.3441C22.7521 21.432 21.9921 22.608 21.0641 23.232C20.1361 23.84 19.2161 24.144 18.3041 24.144ZM24.5586 24.144C23.3746 24.144 22.4546 23.84 21.7986 23.232C21.1426 22.608 20.8146 21.64 20.8146 20.328C20.8146 19.224 21.0306 18.008 21.4626 16.68C21.9106 15.352 22.6146 14.208 23.5746 13.248C24.5506 12.272 25.7826 11.784 27.2706 11.784C28.2306 11.784 28.9106 11.992 29.3106 12.408C29.7266 12.824 29.9346 13.352 29.9346 13.992C29.9346 14.552 29.8146 14.984 29.5746 15.288C29.3346 15.592 29.0306 15.744 28.6626 15.744C28.3906 15.744 28.1106 15.648 27.8226 15.456C28.0146 14.928 28.1106 14.456 28.1106 14.04C28.1106 13.736 28.0546 13.496 27.9426 13.32C27.8306 13.144 27.6626 13.056 27.4386 13.056C26.9586 13.056 26.4786 13.448 25.9986 14.232C25.5186 15.016 25.1266 15.968 24.8226 17.088C24.5186 18.208 24.3666 19.216 24.3666 20.112C24.3666 20.896 24.5026 21.432 24.7746 21.72C25.0466 21.992 25.4866 22.128 26.0946 22.128C26.9586 22.128 27.6946 21.928 28.3026 21.528C28.9266 21.128 29.6066 20.52 30.3426 19.704H31.1586C29.3826 22.664 27.1826 24.144 24.5586 24.144ZM38.1615 24.144C37.1695 24.144 36.4175 23.912 35.9055 23.448C35.3935 22.968 35.1375 22.288 35.1375 21.408C35.1375 21.024 35.1855 20.608 35.2815 20.16L35.4735 19.224C35.5375 18.952 35.5695 18.656 35.5695 18.336C35.5695 17.568 35.2815 17.184 34.7055 17.184C34.4495 17.184 34.1775 17.256 33.8895 17.4C33.6175 17.544 33.2975 17.768 32.9295 18.072L31.6815 24H28.2255L31.7055 7.68L35.2575 7.2L33.4575 15.648L38.0895 12H40.4655L35.6655 15.336C35.9055 15.272 36.1695 15.24 36.4575 15.24C37.3215 15.24 37.9775 15.504 38.4255 16.032C38.8735 16.56 39.0975 17.232 39.0975 18.048C39.0975 18.384 39.0655 18.688 39.0015 18.96L38.7375 20.16C38.6575 20.448 38.6175 20.704 38.6175 20.928C38.6175 21.52 38.9295 21.816 39.5535 21.816C39.9055 21.816 40.1295 21.792 40.2255 21.744C40.3215 21.696 40.3775 21.672 40.3935 21.672C40.3615 22.2 40.2095 22.648 39.9375 23.016C39.6815 23.384 39.3775 23.664 39.0255 23.856C38.6895 24.048 38.4015 24.144 38.1615 24.144ZM45.1378 24.432C44.1298 24.432 43.2418 24.256 42.4738 23.904C41.7058 23.552 41.1138 23.064 40.6978 22.44C40.2818 21.8 40.0738 21.064 40.0738 20.232C40.0738 19.528 40.2178 18.888 40.5058 18.312C40.8098 17.736 41.2098 17.28 41.7058 16.944C42.2178 16.608 42.7778 16.44 43.3858 16.44C43.9458 16.44 44.4178 16.584 44.8018 16.872C45.1858 17.144 45.4258 17.528 45.5218 18.024C44.6898 18.024 44.0258 18.248 43.5298 18.696C43.0338 19.128 42.7858 19.72 42.7858 20.472C42.7858 21.16 42.9938 21.712 43.4098 22.128C43.8258 22.544 44.3778 22.752 45.0658 22.752C45.9138 22.752 46.6098 22.472 47.1538 21.912C47.7138 21.336 47.9938 20.616 47.9938 19.752C47.9938 19 47.7858 18.288 47.3698 17.616C46.9538 16.944 46.3298 16.128 45.4978 15.168C44.6338 14.176 43.9778 13.328 43.5298 12.624C43.0978 11.904 42.8818 11.12 42.8818 10.272C42.8818 9.44 43.1138 8.696 43.5778 8.04C44.0418 7.368 44.6818 6.84 45.4978 6.456C46.3138 6.072 47.2338 5.88 48.2578 5.88C49.5538 5.88 50.5858 6.184 51.3538 6.792C52.1378 7.4 52.5298 8.216 52.5298 9.24C52.5298 9.912 52.3618 10.456 52.0258 10.872C51.6898 11.288 51.2498 11.496 50.7058 11.496C50.0978 11.496 49.6098 11.248 49.2418 10.752C49.5458 10.528 49.7858 10.232 49.9618 9.864C50.1378 9.496 50.2258 9.112 50.2258 8.712C50.2258 8.2 50.0738 7.792 49.7698 7.488C49.4658 7.184 49.0498 7.032 48.5218 7.032C47.8818 7.032 47.3538 7.264 46.9378 7.728C46.5378 8.176 46.3378 8.752 46.3378 9.456C46.3378 10.096 46.5218 10.696 46.8898 11.256C47.2578 11.8 47.8338 12.504 48.6178 13.368C49.2578 14.056 49.7698 14.648 50.1538 15.144C50.5538 15.64 50.8898 16.216 51.1618 16.872C51.4498 17.512 51.5938 18.208 51.5938 18.96C51.5938 19.984 51.3058 20.912 50.7298 21.744C50.1698 22.576 49.3938 23.232 48.4018 23.712C47.4258 24.192 46.3378 24.432 45.1378 24.432ZM60.4093 24.144C59.4333 24.144 58.7133 23.888 58.2493 23.376C57.8013 22.848 57.5773 22.2 57.5773 21.432C57.5773 21.096 57.6173 20.72 57.6973 20.304C57.7773 19.872 57.8573 19.456 57.9373 19.056C58.0333 18.656 58.0973 18.4 58.1293 18.288C58.2573 17.728 58.3773 17.176 58.4893 16.632C58.6013 16.088 58.6573 15.648 58.6573 15.312C58.6573 14.496 58.3693 14.088 57.7933 14.088C57.3773 14.088 57.0093 14.296 56.6893 14.712C56.3693 15.112 56.1133 15.64 55.9213 16.296L54.2893 24H50.8333L54.3133 7.68L57.8653 7.2L56.5693 13.248C57.3693 12.352 58.3053 11.904 59.3773 11.904C60.1933 11.904 60.8413 12.128 61.3213 12.576C61.8013 13.024 62.0413 13.704 62.0413 14.616C62.0413 15.08 61.9853 15.6 61.8733 16.176C61.7613 16.736 61.6013 17.424 61.3933 18.24C61.2653 18.736 61.1453 19.224 61.0333 19.704C60.9373 20.168 60.8893 20.536 60.8893 20.808C60.8893 21.128 60.9613 21.376 61.1053 21.552C61.2493 21.728 61.4973 21.816 61.8493 21.816C62.3293 21.816 62.7133 21.648 63.0013 21.312C63.2893 20.96 63.5773 20.424 63.8653 19.704H64.8733C64.2813 21.464 63.5933 22.648 62.8093 23.256C62.0413 23.848 61.2413 24.144 60.4093 24.144ZM66.1665 24.096C64.9825 24.096 64.0465 23.792 63.3585 23.184C62.6705 22.576 62.3265 21.616 62.3265 20.304C62.3265 19.216 62.5505 18.008 62.9985 16.68C63.4465 15.352 64.1665 14.208 65.1585 13.248C66.1505 12.272 67.3985 11.784 68.9025 11.784C70.9505 11.784 71.9745 13.064 71.9745 15.624V15.648C72.0225 15.664 72.1105 15.672 72.2385 15.672C72.7665 15.672 73.3745 15.536 74.0625 15.264C74.7505 14.976 75.3745 14.632 75.9345 14.232L76.1505 14.88C75.6865 15.376 75.0785 15.8 74.3265 16.152C73.5905 16.488 72.7825 16.728 71.9025 16.872C71.7745 18.328 71.4465 19.6 70.9185 20.688C70.3905 21.776 69.7105 22.616 68.8785 23.208C68.0465 23.8 67.1425 24.096 66.1665 24.096ZM67.1265 21.936C67.5105 21.936 67.8945 21.72 68.2785 21.288C68.6625 20.84 68.9985 20.24 69.2865 19.488C69.5745 18.72 69.7825 17.872 69.9105 16.944C69.4785 16.848 69.2625 16.512 69.2625 15.936C69.2625 15.28 69.5105 14.848 70.0065 14.64C69.9745 14.112 69.8945 13.752 69.7665 13.56C69.6385 13.352 69.4145 13.248 69.0945 13.248C68.5665 13.248 68.0545 13.632 67.5585 14.4C67.0625 15.168 66.6625 16.088 66.3585 17.16C66.0545 18.232 65.9025 19.176 65.9025 19.992C65.9025 20.76 65.9905 21.28 66.1665 21.552C66.3425 21.808 66.6625 21.936 67.1265 21.936ZM73.8334 11.112H77.2894L76.9054 12.912C77.7054 12.224 78.6414 11.88 79.7134 11.88C80.6094 11.88 81.3214 12.176 81.8494 12.768C82.3774 13.36 82.6414 14.328 82.6414 15.672C82.6414 16.936 82.4574 18.216 82.0894 19.512C81.7214 20.792 81.0974 21.888 80.2174 22.8C79.3374 23.696 78.1774 24.144 76.7374 24.144C75.7134 24.144 75.0334 23.856 74.6974 23.28L73.4494 29.136L69.8254 30L73.8334 11.112ZM75.9934 22.056C76.7614 22.056 77.3934 21.696 77.8894 20.976C78.4014 20.256 78.7694 19.4 78.9934 18.408C79.2334 17.4 79.3534 16.464 79.3534 15.6C79.3534 14.272 78.9534 13.608 78.1534 13.608C77.8654 13.608 77.5694 13.712 77.2654 13.92C76.9774 14.128 76.7214 14.416 76.4974 14.784L75.0814 21.504C75.2094 21.872 75.5134 22.056 75.9934 22.056Z" fill="white"/>
<path d="M85 12L92 9.08368L88.9517 8.04832L87.9163 5L85 12Z" stroke="white" stroke-linecap="round" stroke-linejoin="round"/>
</svg>
